<?xml version="1.0" encoding="UTF-8"?>
<svg version="1.1" xmlns="http://www.w3.org/2000/svg" width="500" height="500">
<path d="M0 0 C165 0 330 0 500 0 C500 165 500 330 500 500 C335 500 170 500 0 500 C0 335 0 170 0 0 Z " fill="#FEFEFE" transform="translate(0,0)"/>
<path d="M0 0 C6.93 0 13.86 0 21 0 C21.07476562 1.69125 21.14953125 3.3825 21.2265625 5.125 C21.94388438 18.40525431 23.03892662 30.02067267 29 42 C29.46535156 42.93585938 29.93070313 43.87171875 30.41015625 44.8359375 C40.03681151 62.26581471 55.63417566 71.21780344 74 77 C74.84691406 77.26683594 75.69382812 77.53367187 76.56640625 77.80859375 C90.07684809 81.21557473 105.44138702 79.11758113 119 77 C119.94101562 76.91363281 120.88203125 76.82726562 121.8515625 76.73828125 C124.2353392 76.43933857 125.86103482 76.07938423 128 75 C132.55067664 68.70994477 132.60080091 61.42567347 132.609375 53.96484375 C132.62591125 52.84557999 132.64244751 51.72631622 132.65948486 50.57313538 C132.70774194 47.02786651 132.72928706 43.48302593 132.75 39.9375 C132.77817819 37.52146309 132.80810818 35.10544593 132.83984375 32.68945312 C132.91676573 26.79277592 132.95749603 20.89742555 133 15 C125.74 15 118.48 15 111 15 C114.50573682 11.49426318 117.87173475 9.93503214 122.3125 7.875 C123.05951172 7.51535156 123.80652344 7.15570313 124.57617188 6.78515625 C125.31029297 6.44097656 126.04441406 6.09679687 126.80078125 5.7421875 C127.46247314 5.4313623 128.12416504 5.12053711 128.8059082 4.80029297 C133.42658453 3.11490552 138.17676941 2.8596011 143.0546875 2.68359375 C144.16328125 2.64169922 145.271875 2.59980469 146.4140625 2.55664062 C147.55617188 2.51732422 148.69828125 2.47800781 149.875 2.4375 C151.0403125 2.39431641 152.205625 2.35113281 153.40625 2.30664062 C156.27072625 2.20098371 159.13528321 2.09888201 162 2 C158.25 5.875 158.25 5.875 156 7 C155.96241577 8.38167358 155.96241577 8.38167358 155.92407227 9.79125977 C155.82759882 13.28596102 155.72847268 16.78056794 155.62768555 20.27514648 C155.58499467 21.77316452 155.54329055 23.27121108 155.50268555 24.76928711 C155.28953394 32.60852952 155.03260638 40.44422539 154.57421875 48.2734375 C154.50678467 49.4495459 154.43935059 50.6256543 154.36987305 51.83740234 C153.42878262 59.88419134 149.34311489 66.44407469 143.125 71.53515625 C120.29122413 88.30371041 95.38860277 99.63273596 66.6875 95.25 C64.78472672 94.86626964 62.88857018 94.44843932 61 94 C59.89527344 93.74347656 58.79054688 93.48695313 57.65234375 93.22265625 C44.95246431 89.94572169 34.0121643 84.53119833 24 76 C22.515 74.9171875 22.515 74.9171875 21 73.8125 C12.45766268 66.52778456 7.01169679 56.29140452 3 46 C2.58621094 45.01515625 2.17242187 44.0303125 1.74609375 43.015625 C-2.90403293 29.98878928 -2.68941188 13.44705938 0 0 Z " fill="#030303" transform="translate(201,281)"/>
<path d="M0 0 C1.03125 0.7425 2.0625 1.485 3.125 2.25 C8.95279983 7.82441723 14.13259874 14.43439846 17 22 C13.44254137 23.038991 9.87841256 24.05294158 6.3125 25.0625 C5.30509766 25.35705078 4.29769531 25.65160156 3.25976562 25.95507812 C2.28330078 26.22900391 1.30683594 26.50292969 0.30078125 26.78515625 C-0.59471436 27.04176025 -1.49020996 27.29836426 -2.4128418 27.56274414 C-5.28913085 28.04886603 -7.21784537 27.84151959 -10 27 C-11.66796875 25.21484375 -11.66796875 25.21484375 -13.1875 22.9375 C-22.98201156 9.65395643 -40.17404693 0.25894445 -56.3046875 -2.58203125 C-73.70579989 -4.55023318 -89.14410184 -2.6776604 -103.59375 7.8984375 C-118.98243441 20.67484524 -126.22777973 40.09821026 -128.27001953 59.57519531 C-128.67281934 64.7213268 -128.83599792 69.83393463 -129 75 C-135.6 75 -142.2 75 -149 75 C-149 54.58805258 -140.07984601 35.42456357 -127 20 C-126.33871094 19.16597656 -125.67742187 18.33195312 -124.99609375 17.47265625 C-112.56655352 2.5430567 -93.53551735 -9.37370468 -75 -15 C-73.80375 -15.391875 -72.6075 -15.78375 -71.375 -16.1875 C-46.14307729 -22.26185176 -20.16064719 -16.12172966 0 0 Z " fill="#040404" transform="translate(278,170)"/>
<path d="M0 0 C4.35301263 -0.26260827 8.70398357 -0.42161414 13.0625 -0.5625 C14.29162109 -0.63791016 15.52074219 -0.71332031 16.78710938 -0.79101562 C25.77043839 -1.00894005 25.77043839 -1.00894005 29.34301758 1.92260742 C31.12145246 4.20544743 32.57762305 6.48381787 34 9 C38.51709234 15.307295 44.34882243 19.39209572 50.66015625 23.765625 C51.22774658 24.1589502 51.79533691 24.55227539 52.38012695 24.95751953 C54.14313755 26.14190601 54.14313755 26.14190601 56.796875 27.3203125 C60.02517119 29.78160214 60.42582186 32.82881009 61.1875 36.625 C61.34766602 37.33978516 61.50783203 38.05457031 61.67285156 38.79101562 C62.13276397 40.85734308 62.56738694 42.9278198 63 45 C63.41504489 46.83370116 63.83130878 48.66712797 64.25 50.5 C64.4975 51.655 64.745 52.81 65 54 C45.65228846 53.51958278 28.30035814 41.87957651 15.3125 28.3125 C8.08602178 19.98323785 3.22324545 10.51349451 0 0 Z " fill="#030303" transform="translate(132,281)"/>
<path d="M0 0 C2.21434186 -0.00963071 4.42772418 -0.04065296 6.6418457 -0.07226562 C17.45213597 -0.15323391 28.43176699 0.19074171 37.18286133 7.24023438 C36.53247919 12.51555616 34.48327981 14.25505162 30.51879883 17.52539062 C21.37192739 24.24023438 21.37192739 24.24023438 17.18286133 24.24023438 C16.96629883 23.12648437 16.96629883 23.12648437 16.74536133 21.99023438 C14.05264188 17.25104814 9.05222584 16.11194005 4.02270508 14.58398438 C-16.41696087 9.22792548 -38.90535647 10.64591135 -57.50878906 20.90112305 C-65.92153438 25.8597774 -72.61032223 31.62938449 -77.12963867 40.36523438 C-78.71557617 43.14257812 -78.71557617 43.14257812 -80.81713867 45.24023438 C-85.61125226 46.17683272 -89.99818793 45.90192109 -94.81713867 45.24023438 C-92.64865824 40.48220935 -89.32377913 37.06059019 -85.81713867 33.24023438 C-85.24092773 32.57507813 -84.6647168 31.90992188 -84.07104492 31.22460938 C-65.13792821 10.54068832 -26.99248396 0.07082318 0 0 Z " fill="#060506" transform="translate(311.817138671875,199.759765625)"/>
<path d="M0 0 C5.28 0 10.56 0 16 0 C8.72088201 18.19779497 -10.43644827 31.14688965 -26.71484375 40.91796875 C-27.41601318 41.34231201 -28.11718262 41.76665527 -28.83959961 42.20385742 C-31.57354089 43.21135912 -33.23776622 42.77975778 -36 42 C-36.66 40.02 -37.32 38.04 -38 36 C-36.96101562 35.52691406 -35.92203125 35.05382812 -34.8515625 34.56640625 C-18.4164801 26.86486626 -7.69647725 16.55908742 0 0 Z " fill="#070707" transform="translate(275,281)"/>
<path d="M0 0 C0.97582031 -0.020625 1.95164062 -0.04125 2.95703125 -0.0625 C3.88902344 -0.06765625 4.82101562 -0.0728125 5.78125 -0.078125 C6.63783203 -0.0874707 7.49441406 -0.09681641 8.37695312 -0.10644531 C9.42786133 0.06999512 9.42786133 0.06999512 10.5 0.25 C13.03977065 4.05965598 12.86753945 7.20835509 12.875 11.625 C12.89949219 12.38039062 12.92398437 13.13578125 12.94921875 13.9140625 C12.96839517 17.57036672 12.65569008 19.91754577 11.0859375 23.26953125 C7.14944579 26.28433683 3.55946539 25.79338276 -1.25 25.5625 C-2.13816406 25.53994141 -3.02632813 25.51738281 -3.94140625 25.49414062 C-6.12932812 25.43532552 -8.31379671 25.35321268 -10.5 25.25 C-10.83768172 22.18796326 -11.16936893 19.12530542 -11.5 16.0625 C-11.59539062 15.19818359 -11.69078125 14.33386719 -11.7890625 13.44335938 C-12.22690189 9.36207075 -12.63621913 5.36211498 -12.5 1.25 C-8.72399424 -0.63800288 -4.1550143 0.02195516 0 0 Z " fill="#090909" transform="translate(292.5,219.75)"/>
<path d="M0 0 C4.63235294 2.26470588 4.63235294 2.26470588 6 5 C6.52999351 8.78566792 6.83021253 12.44856036 4.98828125 15.890625 C1.86076905 19.76009955 -0.50879707 20.80669592 -5.375 21.4375 C-9 21 -9 21 -11.9375 18.4375 C-13.66534072 15.98396618 -14.07484539 14.62577307 -14.6875 11.5625 C-13.7731292 6.82439674 -11.5081654 4.21733303 -8 1 C-5.17998673 -0.41000664 -3.12992745 -0.24548451 0 0 Z " fill="#F9F9F9" transform="translate(175,254)"/>
<path d="M0 0 C0.78246094 -0.01417969 1.56492188 -0.02835938 2.37109375 -0.04296875 C4.5625 0.1875 4.5625 0.1875 7.5625 2.1875 C8.03152162 6.5024989 7.55423794 8.20402411 5.5625 12.1875 C8.2025 14.4975 10.8425 16.8075 13.5625 19.1875 C13.2325 19.8475 12.9025 20.5075 12.5625 21.1875 C8.18596871 20.71129711 6.49711995 19.51850111 3.75 16.125 C2.84314453 15.02478516 2.84314453 15.02478516 1.91796875 13.90234375 C1.47066406 13.33644531 1.02335938 12.77054687 0.5625 12.1875 C1.243125 11.630625 1.92375 11.07375 2.625 10.5 C3.264375 9.736875 3.90375 8.97375 4.5625 8.1875 C4.42224801 5.48044488 4.42224801 5.48044488 3.5625 3.1875 C1.9125 2.8575 0.2625 2.5275 -1.4375 2.1875 C-1.49132106 4.81277189 -1.53108313 7.43694713 -1.5625 10.0625 C-1.57925781 10.80886719 -1.59601563 11.55523437 -1.61328125 12.32421875 C-1.6308959 14.27944461 -1.54070189 16.23492021 -1.4375 18.1875 C-0.7775 18.8475 -0.1175 19.5075 0.5625 20.1875 C-1.4175 20.5175 -3.3975 20.8475 -5.4375 21.1875 C-5.1075 14.9175 -4.7775 8.6475 -4.4375 2.1875 C-5.0975 1.8575 -5.7575 1.5275 -6.4375 1.1875 C-4.0978331 0.01766655 -2.60358473 0.0213759 0 0 Z " fill="#292929" transform="translate(192.4375,253.8125)"/>
<path d="M0 0 C0.66 0 1.32 0 2 0 C2.515625 1.175625 3.03125 2.35125 3.5625 3.5625 C5.91809575 8.33321918 9.11033611 11.40954102 13 15 C13.33 10.05 13.66 5.1 14 0 C14.99 0.33 15.98 0.66 17 1 C16.91308261 3.77236494 16.80622639 6.54147078 16.6875 9.3125 C16.66494141 10.09818359 16.64238281 10.88386719 16.61914062 11.69335938 C16.58369141 12.45068359 16.54824219 13.20800781 16.51171875 13.98828125 C16.48553467 14.68477783 16.45935059 15.38127441 16.43237305 16.09887695 C15.88776232 18.49350359 14.84170838 19.43272547 13 21 C11.9152722 19.77206376 10.83229185 18.5425838 9.75 17.3125 C9.14671875 16.62800781 8.5434375 15.94351562 7.921875 15.23828125 C5.89108617 12.87315524 3.94739845 10.43424806 2 8 C1.67 12.29 1.34 16.58 1 21 C0.34 21 -0.32 21 -1 21 C-1.02888146 17.68751813 -1.04675799 14.37506833 -1.0625 11.0625 C-1.07087891 10.11697266 -1.07925781 9.17144531 -1.08789062 8.19726562 C-1.09111328 7.29814453 -1.09433594 6.39902344 -1.09765625 5.47265625 C-1.10289307 4.64000244 -1.10812988 3.80734863 -1.11352539 2.94946289 C-1 1 -1 1 0 0 Z " fill="#2C2C2C" transform="translate(257,254)"/>
<path d="M0 0 C4.63235294 2.26470588 4.63235294 2.26470588 6 5 C6.52999351 8.78566792 6.83021253 12.44856036 4.98828125 15.890625 C1.86076905 19.76009955 -0.50879707 20.80669592 -5.375 21.4375 C-9 21 -9 21 -11.9375 18.4375 C-13.66534072 15.98396618 -14.07484539 14.62577307 -14.6875 11.5625 C-13.7731292 6.82439674 -11.5081654 4.21733303 -8 1 C-5.17998673 -0.41000664 -3.12992745 -0.24548451 0 0 Z M-9.375 3.5 C-11.24266544 6.37333144 -11.63473458 8.60489653 -11.44921875 12.02734375 C-10.65210765 15.52770117 -8.86972996 17.00366611 -6 19 C-2.95659873 19.83349951 -2.95659873 19.83349951 0 19 C3.12212113 16.28868428 3.90584108 14.58587774 4.5625 10.5 C4.25040832 6.88209505 4.25040832 6.88209505 1.875 4.0625 C-0.84165741 1.80403014 -0.84165741 1.80403014 -4.0625 1.4375 C-7.0383584 1.8218659 -7.0383584 1.8218659 -9.375 3.5 Z " fill="#2B2B2B" transform="translate(175,254)"/>
<path d="M0 0 C2.70740662 2.70740662 3.1010554 5.2626766 4.125 8.9375 C4.47820312 10.18402344 4.83140625 11.43054688 5.1953125 12.71484375 C6 16 6 16 6 19 C6.99 19.33 7.98 19.66 9 20 C7.35 20.33 5.7 20.66 4 21 C3.34 18.36 2.68 15.72 2 13 C-0.31 13 -2.62 13 -5 13 C-5.66 14.98 -6.32 16.96 -7 19 C-6.34 19.33 -5.68 19.66 -5 20 C-6.65 20.33 -8.3 20.66 -10 21 C-8.71636464 17.87164058 -7.42174101 14.74794722 -6.125 11.625 C-5.57779297 10.29082031 -5.57779297 10.29082031 -5.01953125 8.9296875 C-4.66503906 8.07890625 -4.31054688 7.228125 -3.9453125 6.3515625 C-3.62062988 5.56604004 -3.29594727 4.78051758 -2.96142578 3.97119141 C-2 2 -2 2 0 0 Z " fill="#252525" transform="translate(288,254)"/>
<path d="M0 0 C-0.33 0.99 -0.66 1.98 -1 3 C-1.92232422 2.96519531 -1.92232422 2.96519531 -2.86328125 2.9296875 C-3.67152344 2.91164063 -4.47976562 2.89359375 -5.3125 2.875 C-6.51326172 2.84019531 -6.51326172 2.84019531 -7.73828125 2.8046875 C-10.28388576 2.84182678 -10.28388576 2.84182678 -13 5 C-13.36498034 7.89608399 -13.36498034 7.89608399 -13.1875 11.125 C-13.14689453 12.76855469 -13.14689453 12.76855469 -13.10546875 14.4453125 C-13.07066406 15.28835938 -13.03585938 16.13140625 -13 17 C-9.37 17.66 -5.74 18.32 -2 19 C-4 21 -4 21 -7.8125 21.4375 C-11.13647496 21.32851721 -12.05900768 20.96189087 -15 19.0625 C-17.68394342 14.95271164 -17.93723567 11.78163756 -17 7 C-15.22432699 3.90901364 -13.80656876 2.47049844 -10.75 0.6875 C-7.06432532 -0.23391867 -3.79605497 -0.12867983 0 0 Z " fill="#181818" transform="translate(237,254)"/>
<path d="M0 0 C1.98 0.495 1.98 0.495 4 1 C3.67 6.61 3.34 12.22 3 18 C5.64 18.33 8.28 18.66 11 19 C10.67 19.66 10.34 20.32 10 21 C6.37 21 2.74 21 -1 21 C-0.67 14.07 -0.34 7.14 0 0 Z " fill="#383838" transform="translate(302,254)"/>
<path d="M0 0 C1.98 0.495 1.98 0.495 4 1 C3.67 6.94 3.34 12.88 3 19 C3.66 19.33 4.32 19.66 5 20 C4.67 20.33 4.34 20.66 4 21 C2.35 21 0.7 21 -1 21 C-0.67 14.07 -0.34 7.14 0 0 Z " fill="#2F2F2F" transform="translate(245,254)"/>
<path d="M0 0 C1.98 0.495 1.98 0.495 4 1 C3.67 6.94 3.34 12.88 3 19 C3.66 19.33 4.32 19.66 5 20 C4.67 20.33 4.34 20.66 4 21 C2.35 21 0.7 21 -1 21 C-0.67 14.07 -0.34 7.14 0 0 Z " fill="#2F2F2F" transform="translate(210,254)"/>
<path d="M0 0 C-0.03480469 1.91425781 -0.03480469 1.91425781 -0.0703125 3.8671875 C-0.08906829 5.5364525 -0.10726869 7.2057238 -0.125 8.875 C-0.14175781 9.71675781 -0.15851563 10.55851562 -0.17578125 11.42578125 C-0.18222656 12.23144531 -0.18867188 13.03710938 -0.1953125 13.8671875 C-0.20578613 14.61081543 -0.21625977 15.35444336 -0.22705078 16.12060547 C-0.1665597 18.24490235 -0.1665597 18.24490235 2 20 C0.02 20.33 -1.96 20.66 -4 21 C-3.67 14.73 -3.34 8.46 -3 2 C-3.66 1.67 -4.32 1.34 -5 1 C-3 0 -3 0 0 0 Z " fill="#2D2D2D" transform="translate(191,254)"/>
<path d="M0 0 C2.5654594 2.5654594 2.54046087 4.47686668 3 8 C2.34 8 1.68 8 1 8 C1 9.32 1 10.64 1 12 C-0.65 12 -2.3 12 -4 12 C-5 9 -5 9 -4.2578125 6.9921875 C-3.88398438 6.29351562 -3.51015625 5.59484375 -3.125 4.875 C-2.75632812 4.17117188 -2.38765625 3.46734375 -2.0078125 2.7421875 C-1 1 -1 1 0 0 Z " fill="#262626" transform="translate(288,254)"/>
<path d="M0 0 C2.375 -0.125 2.375 -0.125 5 0 C5.66 0.66 6.32 1.32 7 2 C6.9375 4.4375 6.9375 4.4375 6 7 C3.4375 8.8125 3.4375 8.8125 1 10 C0 9 0 9 -0.09765625 6.93359375 C-0.08605469 6.10988281 -0.07445312 5.28617187 -0.0625 4.4375 C-0.05347656 3.61121094 -0.04445312 2.78492188 -0.03515625 1.93359375 C-0.02355469 1.29550781 -0.01195312 0.65742188 0 0 Z " fill="#F5F5F5" transform="translate(191,256)"/>
<path d="M0 0 C3.47451265 0.41694152 5.33350785 1.30132012 8.125 3.375 C9.32772819 5.78045638 9.22571472 7.32496953 9.1875 10 C9.17847656 10.81726563 9.16945312 11.63453125 9.16015625 12.4765625 C9.14855469 13.10304688 9.13695312 13.72953125 9.125 14.375 C8.135 14.87 8.135 14.87 7.125 15.375 C7.01542969 14.67632812 6.90585938 13.97765625 6.79296875 13.2578125 C6.63441406 12.34773438 6.47585937 11.43765625 6.3125 10.5 C6.16167969 9.59507812 6.01085937 8.69015625 5.85546875 7.7578125 C5.29448699 5.03087522 5.29448699 5.03087522 2.125 3.375 C0.06790404 3.13444532 0.06790404 3.13444532 -2.0625 3.25 C-3.320625 3.29125 -4.57875 3.3325 -5.875 3.375 C-4.01673359 0.89731145 -3.13057833 0.4083363 0 0 Z " fill="#090909" transform="translate(171.875,253.625)"/>
<path d="M0 0 C0.70125 0.7425 1.4025 1.485 2.125 2.25 C4.97718006 4.97817223 7.6763063 6.91302954 11 9 C10.625 10.9375 10.625 10.9375 10 13 C9.01 13.495 9.01 13.495 8 14 C7.91878906 13.39671875 7.83757812 12.7934375 7.75390625 12.171875 C6.76334726 9.31824391 5.52557989 8.72890279 2.9375 7.25 C2.20402344 6.82203125 1.47054688 6.3940625 0.71484375 5.953125 C0.14894531 5.63859375 -0.41695313 5.3240625 -1 5 C-0.67 3.35 -0.34 1.7 0 0 Z " fill="#181818" transform="translate(318,258)"/>
<path d="M0 0 C1.8871875 0.0309375 1.8871875 0.0309375 3.8125 0.0625 C3.4825 1.0525 3.1525 2.0425 2.8125 3.0625 C1.89017578 3.02769531 1.89017578 3.02769531 0.94921875 2.9921875 C0.14097656 2.97414063 -0.66726562 2.95609375 -1.5 2.9375 C-2.70076172 2.90269531 -2.70076172 2.90269531 -3.92578125 2.8671875 C-6.47138576 2.90432678 -6.47138576 2.90432678 -9.1875 5.0625 C-9.76743699 7.25704681 -9.76743699 7.25704681 -9.875 9.6875 C-9.97361328 10.91339844 -9.97361328 10.91339844 -10.07421875 12.1640625 C-10.13029297 13.10378906 -10.13029297 13.10378906 -10.1875 14.0625 C-13.1875 10.7025 -13.1875 10.7025 -13.1875 8.125 C-11.73110195 5.12117903 -9.67570341 3.25448872 -7.1875 1.0625 C-4.43671116 0.14557039 -2.82801087 -0.04636083 0 0 Z " fill="#4E4E4E" transform="translate(233.1875,253.9375)"/>
<path d="M0 0 C5.625 -0.25 5.625 -0.25 9 2 C9.375 5 9.375 5 9 8 C8.01 8.66 7.02 9.32 6 10 C6 8.02 6 6.04 6 4 C4.02 3.34 2.04 2.68 0 2 C0 1.34 0 0.68 0 0 Z " fill="#1E1E1E" transform="translate(191,254)"/>
<path d="M0 0 C1.32 0.33 2.64 0.66 4 1 C3.67 6.61 3.34 12.22 3 18 C2.67 18 2.34 18 2 18 C1.34 12.06 0.68 6.12 0 0 Z " fill="#1A1A1A" transform="translate(302,254)"/>
<path d="M0 0 C2.97 0.33 5.94 0.66 9 1 C8.67 1.66 8.34 2.32 8 3 C2.55072464 4.27536232 2.55072464 4.27536232 0 3 C0 2.01 0 1.02 0 0 Z " fill="#494949" transform="translate(316,272)"/>
<path d="M0 0 C2.9375 0.25 2.9375 0.25 4.9375 1.25 C4.9375 1.91 4.9375 2.57 4.9375 3.25 C1.3075 3.25 -2.3225 3.25 -6.0625 3.25 C-3.0625 0.25 -3.0625 0.25 0 0 Z " fill="#323232" transform="translate(172.0625,253.75)"/>
<path d="M0 0 C0.66 0 1.32 0 2 0 C2.33 1.98 2.66 3.96 3 6 C1.35 6 -0.3 6 -2 6 C-1.34 4.02 -0.68 2.04 0 0 Z " fill="#DDDDDD" transform="translate(286,260)"/>
<path d="M0 0 C2.475 0.99 2.475 0.99 5 2 C4.625 3.9375 4.625 3.9375 4 6 C3.01 6.495 3.01 6.495 2 7 C1.34 4.69 0.68 2.38 0 0 Z " fill="#1F1F1F" transform="translate(324,265)"/>
<path d="M0 0 C0.99 0 1.98 0 3 0 C3 2.64 3 5.28 3 8 C2.34 8 1.68 8 1 8 C0.67 5.36 0.34 2.72 0 0 Z " fill="#101010" transform="translate(235,264)"/>
</svg>
